<svg xmlns="http://www.w3.org/2000/svg" viewBox="0 0 46 46"><defs><style>.cls-1{fill:#646464;}</style></defs><g id="Assets_Home"><g id="Social_Icons__Normal" data-name="Social Icons_ Normal"><g id="Social_Media" data-name="Social Media"><path class="cls-1" d="M19.94,19.35c0-.31,0-.51,0-.71,0-1.06,0-2.12,0-3.17a8,8,0,0,1,.63-3.25A5.54,5.54,0,0,1,24.42,9,5.56,5.56,0,0,1,26,8.78c1.38,0,2.75.07,4.13.12a2,2,0,0,1,.26.06,26.22,26.22,0,0,1,.05,4.54l-.48,0h-2a5.11,5.11,0,0,0-.78.05,1.88,1.88,0,0,0-1.86,2c-.05,1.19,0,2.38,0,3.56,0,0,0,.07.08.18,1.61.05,3.26,0,5,0-.19,1.74-.41,3.43-.66,5.16H25.3V37.22H20l0-12.71H15.66a29,29,0,0,1-.08-5.16Z"/></g></g></g></svg>