<svg xmlns="http://www.w3.org/2000/svg" viewBox="0 0 46 46"><defs><style>.cls-1{fill:#7e7e7e;}</style></defs><g id="Assets_Home"><path class="cls-1" d="M37.36,23.11c-.06,2.13-.06,4.32-.2,6.5a7.56,7.56,0,0,1-3.44,6.23,7.74,7.74,0,0,1-3.83,1.25c-2.07.12-4.16.15-6.24.17s-4,0-6,0a11.17,11.17,0,0,1-4.42-.83,7.13,7.13,0,0,1-3.88-4.09A9.86,9.86,0,0,1,8.74,29c0-2.55-.09-5.1-.1-7.65,0-1.59,0-3.19.11-4.78a8.27,8.27,0,0,1,1.41-4.43A7.3,7.3,0,0,1,15.85,9c2.22-.18,4.45-.19,6.68-.21,2,0,4,0,6,.06a10.35,10.35,0,0,1,4,.8,7.1,7.1,0,0,1,4.13,4.65,10,10,0,0,1,.42,2.37C37.27,18.76,37.3,20.91,37.36,23.11ZM22.69,11.36h0c-1.6,0-3.19,0-4.78,0a13.75,13.75,0,0,0-2.4.24,4.75,4.75,0,0,0-4,3.83,8.12,8.12,0,0,0-.23,1.83c0,3.21-.05,6.41,0,9.62a25.72,25.72,0,0,0,.16,2.92,5.08,5.08,0,0,0,1.64,3.42,4.84,4.84,0,0,0,2.57,1.19,23.62,23.62,0,0,0,2.91.24c2,0,4,0,6,0,1.44,0,2.89-.06,4.33-.1a7.47,7.47,0,0,0,2.43-.45,4.68,4.68,0,0,0,2.85-2.82A7.67,7.67,0,0,0,34.62,29q.21-5.93,0-11.85a8.54,8.54,0,0,0-.28-1.88,4.74,4.74,0,0,0-3.45-3.5,11.45,11.45,0,0,0-3-.36C26.13,11.34,24.41,11.36,22.69,11.36ZM30.35,23a7.37,7.37,0,1,1-7.42-7.33A7.34,7.34,0,0,1,30.35,23ZM23,27.75a4.74,4.74,0,1,0-4.75-4.69A4.78,4.78,0,0,0,23,27.75Zm7.68-14.09a1.73,1.73,0,1,0,1.71,1.74A1.72,1.72,0,0,0,30.63,13.66Z"/></g></svg>