<svg xmlns="http://www.w3.org/2000/svg" viewBox="0 0 46 46"><defs><style>.cls-1{fill:#7e7e7e;}</style></defs><g id="Assets_Home"><path class="cls-1" d="M36.77,36.64h-5.7V35.58c0-2.72,0-5.44,0-8.16a11.36,11.36,0,0,0-.24-2.4,2.45,2.45,0,0,0-2.64-2.09,5.39,5.39,0,0,0-.7,0,2.67,2.67,0,0,0-2.36,1.79,6.4,6.4,0,0,0-.4,2c-.06,2.91-.06,5.82-.08,8.73,0,.38,0,.76,0,1.22-1.92,0-3.78,0-5.67,0V18.49a33.57,33.57,0,0,1,5.46-.06l.06,2.22a2.74,2.74,0,0,0,.32-.29,6.48,6.48,0,0,1,6-2.44,6.83,6.83,0,0,1,3.37,1,5.44,5.44,0,0,1,2.16,3.13,11.94,11.94,0,0,1,.48,3.4c0,3.59,0,7.19,0,10.78A3.46,3.46,0,0,1,36.77,36.64ZM15.35,30.55c0-2,0-4.08,0-6.12s.07-4,0-6a38.26,38.26,0,0,0-5.67.06c-.11,1-.1,17.81,0,18.2h5.64ZM12.58,9.29a3.29,3.29,0,1,0,3.25,3.31A3.29,3.29,0,0,0,12.58,9.29Z"/></g></svg>