<svg xmlns="http://www.w3.org/2000/svg" viewBox="0 0 46 46"><defs><style>.cls-1{fill:#646464;}</style></defs><g id="Assets_Home"><g id="Social_Icons__Normal" data-name="Social Icons_ Normal"><g id="Social_Media" data-name="Social Media"><path class="cls-1" d="M10.21,31.26A10.89,10.89,0,0,0,17.61,29a5.6,5.6,0,0,1-4.73-3.72h2l0-.14a2.68,2.68,0,0,0-.33-.18,5.29,5.29,0,0,1-3.46-4.23,2.32,2.32,0,0,1-.05-.38V20a5.66,5.66,0,0,0,2.19.55,5.55,5.55,0,0,1-1.47-7,16.34,16.34,0,0,0,4.89,3.93,15.48,15.48,0,0,0,6,1.62c0-.31,0-.54-.05-.76a5.27,5.27,0,0,1,3.49-5.43,5.15,5.15,0,0,1,5.26.95A1,1,0,0,0,32.5,14l2.08-.8c.15-.06.29-.14.53-.25a5.91,5.91,0,0,1-1.84,2.69,7.28,7.28,0,0,0,2.52-.6,2.72,2.72,0,0,1-.27.45c-.63.66-1.25,1.32-1.92,1.94a1,1,0,0,0-.35.76,15.32,15.32,0,0,1-2.51,8.55A14.18,14.18,0,0,1,21,33.26a15.2,15.2,0,0,1-10.45-1.79C10.41,31.41,10.31,31.33,10.21,31.26Z"/></g></g></g></svg>